<mxfile host="app.diagrams.net" modified="2023-06-26T11:15:29.236Z" agent="Mozilla/5.0 (Windows NT 10.0; Win64; x64) AppleWebKit/537.36 (KHTML, like Gecko) Chrome/114.0.0.0 Safari/537.36" etag="dvPG_3Sx2z9W8IqD3fic" version="21.5.0" type="device">
  <diagram name="Страница 1" id="aKaaYQA24r8cnJcRiHjf">
    <mxGraphModel dx="1173" dy="645" grid="1" gridSize="10" guides="1" tooltips="1" connect="1" arrows="1" fold="1" page="1" pageScale="1" pageWidth="827" pageHeight="1169" math="0" shadow="0">
      <root>
        <mxCell id="0" />
        <mxCell id="1" parent="0" />
        <mxCell id="jj2w-q2InDVkd7VUoeMa-2" value="" style="rounded=0;whiteSpace=wrap;html=1;" vertex="1" parent="1">
          <mxGeometry x="130" y="105" width="550" height="500" as="geometry" />
        </mxCell>
        <mxCell id="jj2w-q2InDVkd7VUoeMa-3" value="" style="rounded=0;whiteSpace=wrap;html=1;" vertex="1" parent="1">
          <mxGeometry x="1100" y="90" width="320" height="530" as="geometry" />
        </mxCell>
        <mxCell id="jj2w-q2InDVkd7VUoeMa-4" value="" style="endArrow=classic;startArrow=classic;html=1;rounded=0;" edge="1" parent="1">
          <mxGeometry width="50" height="50" relative="1" as="geometry">
            <mxPoint x="1080" y="620" as="sourcePoint" />
            <mxPoint x="1080" y="90" as="targetPoint" />
          </mxGeometry>
        </mxCell>
        <mxCell id="jj2w-q2InDVkd7VUoeMa-5" value="&lt;font size=&quot;3&quot;&gt;6м&lt;/font&gt;" style="text;html=1;align=center;verticalAlign=middle;resizable=0;points=[];autosize=1;strokeColor=none;fillColor=none;" vertex="1" parent="1">
          <mxGeometry x="1040" y="348" width="40" height="30" as="geometry" />
        </mxCell>
        <mxCell id="jj2w-q2InDVkd7VUoeMa-6" value="" style="endArrow=classic;startArrow=classic;html=1;rounded=0;" edge="1" parent="1">
          <mxGeometry width="50" height="50" relative="1" as="geometry">
            <mxPoint x="1100" y="70" as="sourcePoint" />
            <mxPoint x="1420" y="70" as="targetPoint" />
          </mxGeometry>
        </mxCell>
        <mxCell id="jj2w-q2InDVkd7VUoeMa-7" value="&lt;font size=&quot;3&quot;&gt;3,6м&lt;/font&gt;" style="text;html=1;align=center;verticalAlign=middle;resizable=0;points=[];autosize=1;strokeColor=none;fillColor=none;" vertex="1" parent="1">
          <mxGeometry x="1230" y="30" width="60" height="30" as="geometry" />
        </mxCell>
        <mxCell id="jj2w-q2InDVkd7VUoeMa-10" value="" style="endArrow=none;html=1;rounded=0;exitX=0;exitY=0.5;exitDx=0;exitDy=0;" edge="1" parent="1" source="jj2w-q2InDVkd7VUoeMa-3">
          <mxGeometry width="50" height="50" relative="1" as="geometry">
            <mxPoint x="1190" y="390" as="sourcePoint" />
            <mxPoint x="1310" y="355" as="targetPoint" />
          </mxGeometry>
        </mxCell>
        <mxCell id="jj2w-q2InDVkd7VUoeMa-12" value="" style="endArrow=none;html=1;rounded=0;entryX=1;entryY=0.5;entryDx=0;entryDy=0;" edge="1" parent="1" target="jj2w-q2InDVkd7VUoeMa-3">
          <mxGeometry width="50" height="50" relative="1" as="geometry">
            <mxPoint x="1340" y="355" as="sourcePoint" />
            <mxPoint x="1420" y="360" as="targetPoint" />
          </mxGeometry>
        </mxCell>
        <mxCell id="jj2w-q2InDVkd7VUoeMa-13" value="ПГП" style="text;html=1;align=center;verticalAlign=middle;resizable=0;points=[];autosize=1;strokeColor=none;fillColor=none;" vertex="1" parent="1">
          <mxGeometry x="1190.5" y="318" width="50" height="30" as="geometry" />
        </mxCell>
        <mxCell id="jj2w-q2InDVkd7VUoeMa-14" value="ПГП" style="text;html=1;align=center;verticalAlign=middle;resizable=0;points=[];autosize=1;strokeColor=none;fillColor=none;" vertex="1" parent="1">
          <mxGeometry x="1360" y="318" width="50" height="30" as="geometry" />
        </mxCell>
        <mxCell id="jj2w-q2InDVkd7VUoeMa-15" value="" style="endArrow=classic;startArrow=classic;html=1;rounded=0;" edge="1" parent="1">
          <mxGeometry width="50" height="50" relative="1" as="geometry">
            <mxPoint x="120" y="620" as="sourcePoint" />
            <mxPoint x="690" y="620" as="targetPoint" />
          </mxGeometry>
        </mxCell>
        <mxCell id="jj2w-q2InDVkd7VUoeMa-16" value="&lt;font style=&quot;font-size: 14px;&quot;&gt;3,6м&lt;/font&gt;" style="text;html=1;align=center;verticalAlign=middle;resizable=0;points=[];autosize=1;strokeColor=none;fillColor=none;" vertex="1" parent="1">
          <mxGeometry x="380" y="628" width="50" height="30" as="geometry" />
        </mxCell>
        <mxCell id="jj2w-q2InDVkd7VUoeMa-17" value="" style="endArrow=classic;startArrow=classic;html=1;rounded=0;" edge="1" parent="1">
          <mxGeometry width="50" height="50" relative="1" as="geometry">
            <mxPoint x="110" y="600" as="sourcePoint" />
            <mxPoint x="110" y="110" as="targetPoint" />
          </mxGeometry>
        </mxCell>
        <mxCell id="jj2w-q2InDVkd7VUoeMa-18" value="&lt;font style=&quot;font-size: 14px;&quot;&gt;2,6м&lt;br&gt;&lt;/font&gt;" style="text;html=1;align=center;verticalAlign=middle;resizable=0;points=[];autosize=1;strokeColor=none;fillColor=none;" vertex="1" parent="1">
          <mxGeometry x="55" y="348" width="50" height="30" as="geometry" />
        </mxCell>
        <mxCell id="jj2w-q2InDVkd7VUoeMa-19" value="" style="rounded=0;whiteSpace=wrap;html=1;" vertex="1" parent="1">
          <mxGeometry x="345" y="380" width="120" height="225" as="geometry" />
        </mxCell>
        <mxCell id="jj2w-q2InDVkd7VUoeMa-21" value="" style="endArrow=classic;startArrow=classic;html=1;rounded=0;" edge="1" parent="1">
          <mxGeometry width="50" height="50" relative="1" as="geometry">
            <mxPoint x="320" y="600" as="sourcePoint" />
            <mxPoint x="320" y="380" as="targetPoint" />
          </mxGeometry>
        </mxCell>
        <mxCell id="jj2w-q2InDVkd7VUoeMa-23" value="&lt;font style=&quot;font-size: 14px;&quot;&gt;2м&lt;/font&gt;" style="text;html=1;align=center;verticalAlign=middle;resizable=0;points=[];autosize=1;strokeColor=none;fillColor=none;" vertex="1" parent="1">
          <mxGeometry x="280" y="477.5" width="40" height="30" as="geometry" />
        </mxCell>
        <mxCell id="jj2w-q2InDVkd7VUoeMa-24" value="" style="endArrow=classic;startArrow=classic;html=1;rounded=0;" edge="1" parent="1">
          <mxGeometry width="50" height="50" relative="1" as="geometry">
            <mxPoint x="345" y="354.17" as="sourcePoint" />
            <mxPoint x="465" y="354.17" as="targetPoint" />
          </mxGeometry>
        </mxCell>
        <mxCell id="jj2w-q2InDVkd7VUoeMa-25" value="&lt;font style=&quot;font-size: 14px;&quot;&gt;0,9м&lt;/font&gt;" style="text;html=1;align=center;verticalAlign=middle;resizable=0;points=[];autosize=1;strokeColor=none;fillColor=none;" vertex="1" parent="1">
          <mxGeometry x="380" y="318" width="50" height="30" as="geometry" />
        </mxCell>
        <mxCell id="jj2w-q2InDVkd7VUoeMa-28" value="" style="ellipse;shape=cloud;whiteSpace=wrap;html=1;" vertex="1" parent="1">
          <mxGeometry x="1460" y="90" width="120" height="80" as="geometry" />
        </mxCell>
        <mxCell id="jj2w-q2InDVkd7VUoeMa-29" value="" style="ellipse;shape=cloud;whiteSpace=wrap;html=1;" vertex="1" parent="1">
          <mxGeometry x="1570" y="220" width="120" height="80" as="geometry" />
        </mxCell>
        <mxCell id="jj2w-q2InDVkd7VUoeMa-30" value="" style="ellipse;shape=cloud;whiteSpace=wrap;html=1;" vertex="1" parent="1">
          <mxGeometry x="1450" y="348" width="120" height="80" as="geometry" />
        </mxCell>
        <mxCell id="jj2w-q2InDVkd7VUoeMa-31" value="" style="ellipse;shape=cloud;whiteSpace=wrap;html=1;" vertex="1" parent="1">
          <mxGeometry x="1570" y="508" width="120" height="80" as="geometry" />
        </mxCell>
        <mxCell id="jj2w-q2InDVkd7VUoeMa-32" value="Окно" style="text;html=1;align=center;verticalAlign=middle;resizable=0;points=[];autosize=1;strokeColor=none;fillColor=none;" vertex="1" parent="1">
          <mxGeometry x="1400" y="477.5" width="50" height="30" as="geometry" />
        </mxCell>
        <mxCell id="jj2w-q2InDVkd7VUoeMa-33" value="Окно2" style="text;html=1;align=center;verticalAlign=middle;resizable=0;points=[];autosize=1;strokeColor=none;fillColor=none;" vertex="1" parent="1">
          <mxGeometry x="1390" y="200" width="60" height="30" as="geometry" />
        </mxCell>
        <mxCell id="jj2w-q2InDVkd7VUoeMa-34" value="Стол" style="shape=process;whiteSpace=wrap;html=1;backgroundOutline=1;direction=south;" vertex="1" parent="1">
          <mxGeometry x="1100" y="465" width="60" height="120" as="geometry" />
        </mxCell>
        <mxCell id="jj2w-q2InDVkd7VUoeMa-35" value="Actor" style="shape=umlActor;verticalLabelPosition=bottom;verticalAlign=top;html=1;outlineConnect=0;" vertex="1" parent="1">
          <mxGeometry x="1180" y="490" width="30" height="60" as="geometry" />
        </mxCell>
        <mxCell id="jj2w-q2InDVkd7VUoeMa-36" value="Ведро" style="shape=cylinder3;whiteSpace=wrap;html=1;boundedLbl=1;backgroundOutline=1;size=15;" vertex="1" parent="1">
          <mxGeometry x="1360" y="550" width="50" height="55" as="geometry" />
        </mxCell>
        <mxCell id="jj2w-q2InDVkd7VUoeMa-37" value="" style="shape=waypoint;sketch=0;fillStyle=solid;size=6;pointerEvents=1;points=[];fillColor=none;resizable=0;rotatable=0;perimeter=centerPerimeter;snapToPoint=1;" vertex="1" parent="1">
          <mxGeometry x="1171" y="85" width="20" height="20" as="geometry" />
        </mxCell>
        <mxCell id="jj2w-q2InDVkd7VUoeMa-38" value="Кран" style="text;html=1;align=center;verticalAlign=middle;resizable=0;points=[];autosize=1;strokeColor=none;fillColor=none;" vertex="1" parent="1">
          <mxGeometry x="1171" y="90" width="50" height="30" as="geometry" />
        </mxCell>
        <mxCell id="jj2w-q2InDVkd7VUoeMa-39" value="Мешки" style="shape=loopLimit;whiteSpace=wrap;html=1;" vertex="1" parent="1">
          <mxGeometry x="1340" y="90" width="40" height="50" as="geometry" />
        </mxCell>
        <mxCell id="jj2w-q2InDVkd7VUoeMa-40" value="" style="shape=waypoint;sketch=0;fillStyle=solid;size=6;pointerEvents=1;points=[];fillColor=none;resizable=0;rotatable=0;perimeter=centerPerimeter;snapToPoint=1;" vertex="1" parent="1">
          <mxGeometry x="440" y="478" width="20" height="20" as="geometry" />
        </mxCell>
        <mxCell id="jj2w-q2InDVkd7VUoeMa-41" value="Плиты" style="shape=parallelogram;perimeter=parallelogramPerimeter;whiteSpace=wrap;html=1;fixedSize=1;" vertex="1" parent="1">
          <mxGeometry x="1101" y="268" width="79" height="32" as="geometry" />
        </mxCell>
        <mxCell id="jj2w-q2InDVkd7VUoeMa-42" value="Грунт&lt;br&gt;овка" style="shape=cylinder3;whiteSpace=wrap;html=1;boundedLbl=1;backgroundOutline=1;size=15;" vertex="1" parent="1">
          <mxGeometry x="1310" y="543" width="40" height="62" as="geometry" />
        </mxCell>
      </root>
    </mxGraphModel>
  </diagram>
</mxfile>
